# xmcd CD database file
#
# Track frame offsets:
#	182
#	18452
#	40612
#	64850
#	83042
#	103070
#	121510
#	145185
#	164390
#	183067
#	201107
#	219527
#	240355
#
# Disc length: 3460 seconds
#
# Revision: 0
# Processed by: cddbd v1.5.1PL0 Copyright (c) Steve Scherf et al.
# Submitted via: CDex 1.51
#
DISCID=a20d820d
DTITLE=Various Artist - Merengon 4
DYEAR=2001
DGENRE=Merengue
TTITLE0=Jurame (Version Merengue) - Giselle
TTITLE1=Tu Vas a Volar - Rubby Perez
TTITLE2=Tu Va' Vei - Toño Rosario
TTITLE3=Pideme (Version Merengue) - Milly Quezada and Miguel Vasquez
TTITLE4=Adivina - Grupo Mania
TTITLE5=Bano de Luna - Melina Leon
TTITLE6=Amor Narcotico - Chichi Peralta Y Son Familia
TTITLE7=El Frio de Tu Adios - Olga Tañon
TTITLE8=Siento - Los Hermanos Rosario
TTITLE9=Menos Que Nada - Los Toros Band
TTITLE10=La Nena Que Me Enamora - Albert Lee
TTITLE11=Maria Se Fue - Oro Solido
TTITLE12=Que Tristeza - Grupo Mateos
EXTD=YEAR: 2001
EXTT0=
EXTT1=
EXTT2=
EXTT3=
EXTT4=
EXTT5=
EXTT6=
EXTT7=
EXTT8=
EXTT9=
EXTT10=
EXTT11=
EXTT12=
PLAYORDER=
